<?xml version="1.0" encoding="UTF-8"?>
<!DOCTYPE svg PUBLIC "-//W3C//DTD SVG 1.1//EN" "http://www.w3.org/Graphics/SVG/1.1/DTD/svg11.dtd">
<svg xmlns="http://www.w3.org/2000/svg" version="1.1" width="2318px" height="599px" style="shape-rendering:geometricPrecision; text-rendering:geometricPrecision; image-rendering:optimizeQuality; fill-rule:evenodd; clip-rule:evenodd" xmlns:xlink="http://www.w3.org/1999/xlink">
<g><path style="opacity:0.951" fill="#1147ab" d="M 219.5,260.5 C 253.112,211.407 297.445,175.24 352.5,152C 396.576,134.23 442.242,122.23 489.5,116C 588.293,103.174 686.626,102.34 784.5,113.5C 790.332,102.503 797.165,92.1698 805,82.5C 826.46,107.953 847.96,132.453 869.5,156C 869.167,156.333 868.833,156.667 868.5,157C 870.886,157.284 871.552,158.284 870.5,160C 824.427,169.852 778.427,180.018 732.5,190.5C 731.5,190.167 730.5,189.833 729.5,189.5C 736.966,180.052 744.299,170.552 751.5,161C 707.463,146.111 662.13,137.944 615.5,136.5C 533.483,129.868 452.817,137.702 373.5,160C 320.008,175.645 273.841,203.145 235,242.5C 230.052,248.758 224.885,254.758 219.5,260.5 Z"/></g>
<g><path style="opacity:1" fill="#fc9455" d="M 1303.5,156.5 C 1326.85,156.286 1350.18,156.786 1373.5,158C 1406.67,161.179 1426.5,179.012 1433,211.5C 1433.67,270.167 1433.67,328.833 1433,387.5C 1427.1,414.073 1410.93,430.906 1384.5,438C 1376.28,439.882 1367.95,440.882 1359.5,441C 1339.5,441.667 1319.5,441.667 1299.5,441C 1282.12,440.76 1266.12,436.094 1251.5,427C 1238.87,416.366 1231.37,402.866 1229,386.5C 1228.33,328.167 1228.33,269.833 1229,211.5C 1234.46,184.37 1250.63,167.203 1277.5,160C 1286.25,158.327 1294.91,157.16 1303.5,156.5 Z M 1301.5,217.5 C 1321.17,217.333 1340.84,217.5 1360.5,218C 1365.91,219.743 1369.74,223.243 1372,228.5C 1373.65,274.108 1373.98,319.774 1373,365.5C 1371.66,371.501 1368.16,375.668 1362.5,378C 1344.2,379.569 1325.87,379.902 1307.5,379C 1297.22,379.383 1291.05,374.549 1289,364.5C 1288.33,320.167 1288.33,275.833 1289,231.5C 1290.95,224.72 1295.12,220.053 1301.5,217.5 Z"/></g>
<g><path style="opacity:1" fill="#fc9455" d="M 1850.5,161.5 C 1853.65,160.959 1856.15,161.959 1858,164.5C 1876.25,191.328 1894.25,218.328 1912,245.5C 1914.72,248.321 1917.05,247.987 1919,244.5C 1937.29,217.419 1955.46,190.253 1973.5,163C 1996.07,162.173 2018.57,162.34 2041,163.5C 2041.96,236.518 2041.63,309.518 2040,382.5C 2031.06,416.279 2009.23,434.613 1974.5,437.5C 1974.82,383.144 1974.48,328.81 1973.5,274.5C 1970.74,274.744 1968.57,276.077 1967,278.5C 1949.67,299.167 1932.33,319.833 1915,340.5C 1897,319.833 1879,299.167 1861,278.5C 1859.56,276.845 1857.72,276.178 1855.5,276.5C 1855.67,310.835 1855.5,345.168 1855,379.5C 1847.61,413.285 1826.77,432.619 1792.5,437.5C 1791.23,437.43 1790.06,437.097 1789,436.5C 1788.33,364.833 1788.33,293.167 1789,221.5C 1795.94,187.389 1816.44,167.389 1850.5,161.5 Z"/></g>
<g><path style="opacity:1" fill="#fc9455" d="M 1554.5,163.5 C 1609.17,163.5 1663.83,163.5 1718.5,163.5C 1718.42,183.922 1710.08,200.089 1693.5,212C 1687.93,215.553 1681.93,218.22 1675.5,220C 1664.51,221.083 1653.51,221.916 1642.5,222.5C 1642.67,276.834 1642.5,331.168 1642,385.5C 1636.15,410.35 1620.98,426.517 1596.5,434C 1591.26,435.648 1585.92,436.315 1580.5,436C 1579.83,364.901 1579.17,293.735 1578.5,222.5C 1553.54,221.676 1528.54,221.176 1503.5,221C 1505.81,188.923 1522.81,169.756 1554.5,163.5 Z"/></g>
<g><path style="opacity:0.948" fill="#1147ab" d="M 704.5,274.5 C 705.5,274.5 706.5,274.5 707.5,274.5C 707.715,272.821 707.048,271.821 705.5,271.5C 687.403,263.619 669.403,255.453 651.5,247C 597.862,227.123 542.862,212.123 486.5,202C 454.931,196.939 423.098,194.106 391,193.5C 352.23,193.522 315.397,201.689 280.5,218C 262.891,228.114 247.224,240.614 233.5,255.5C 253.075,228.699 278.075,208.533 308.5,195C 333.266,185.26 358.932,179.26 385.5,177C 403.178,175.362 420.845,174.528 438.5,174.5C 499.126,177.1 558.626,185.433 617,199.5C 617.561,198.978 618.228,198.645 619,198.5C 658.47,207.374 697.97,217.041 737.5,227.5C 744.53,218.759 750.53,209.425 755.5,199.5C 757.75,199.181 759.75,199.681 761.5,201C 761.167,201.333 760.833,201.667 760.5,202C 765.329,209.454 769.995,216.454 774.5,223C 774.5,224 774.5,225 774.5,226C 786.51,245.523 797.843,264.356 808.5,282.5C 801.406,284.398 794.239,286.065 787,287.5C 786,287.167 785,286.833 784,286.5C 773.478,289.257 763.311,290.924 753.5,291.5C 745.5,293.167 737.5,294.833 729.5,296.5C 728.914,296.291 728.414,295.957 728,295.5C 713.721,298.57 699.554,301.237 685.5,303.5C 684.167,302.167 684.167,300.833 685.5,299.5C 692.024,291.204 698.358,282.871 704.5,274.5 Z"/></g>
<g><path style="opacity:0.229" fill="#1147ab" d="M 233.5,255.5 C 233.483,257.028 232.816,257.528 231.5,257C 232.044,256.283 232.711,255.783 233.5,255.5 Z"/></g>
<g><path style="opacity:0.333" fill="#1147ab" d="M 219.5,260.5 C 219.315,262.196 218.481,263.529 217,264.5C 216.721,262.588 217.554,261.254 219.5,260.5 Z"/></g>
<g><path style="opacity:1" fill="#1b50ae" d="M 705.5,271.5 C 707.048,271.821 707.715,272.821 707.5,274.5C 706.5,274.5 705.5,274.5 704.5,274.5C 704.557,273.391 704.89,272.391 705.5,271.5 Z"/></g>
<g><path style="opacity:0.939" fill="#fb9454" d="M 354.5,292.5 C 357.572,292.183 360.572,292.516 363.5,293.5C 358.408,299.548 353.075,305.381 347.5,311C 382.613,330.541 418.78,345.374 456,355.5C 536.499,381.544 619.833,397.544 706,403.5C 724.324,403.704 742.824,403.204 761.5,402C 782.198,399.726 802.531,395.393 822.5,389C 829.962,385.033 837.295,380.867 844.5,376.5C 849.224,372.451 853.557,367.951 857.5,363C 857.167,362.667 856.833,362.333 856.5,362C 859.2,358.563 861.534,354.897 863.5,351C 863.5,349 863.5,347 863.5,345C 864.032,342.959 865.032,340.792 866.5,338.5C 870.562,359.981 863.562,378.815 845.5,395C 831.588,405.525 816.254,413.192 799.5,418C 757.509,427.398 715.509,429.898 673.5,425.5C 669.789,426.365 666.123,426.031 662.5,424.5C 661.554,424.987 660.554,425.32 659.5,425.5C 647.831,423.244 635.998,421.578 624,420.5C 621.164,421.265 618.33,420.932 615.5,419.5C 614.833,419.833 614.167,420.167 613.5,420.5C 607.938,419.288 602.438,417.954 597,416.5C 593.667,416.5 590.333,416.5 587,416.5C 582.174,415.221 577.341,413.888 572.5,412.5C 571.833,412.833 571.167,413.167 570.5,413.5C 509.974,401.49 449.474,386.49 389,368.5C 366.175,361.392 343.675,353.392 321.5,344.5C 320.328,344.919 319.328,345.585 318.5,346.5C 312.764,354.27 306.764,361.937 300.5,369.5C 298.76,365.383 297.093,361.217 295.5,357C 295.833,356.667 296.167,356.333 296.5,356C 294.573,350.452 292.573,344.952 290.5,339.5C 290.623,337.622 290.623,335.789 290.5,334C 288.173,327.713 285.84,321.38 283.5,315C 283.833,314.667 284.167,314.333 284.5,314C 283.5,311 282.5,308 281.5,305C 305.837,300.57 330.171,296.403 354.5,292.5 Z"/></g>
<g><path style="opacity:0.943" fill="#fb9454" d="M 888.5,354.5 C 890.411,354.574 891.578,355.574 892,357.5C 898.52,375.652 898.52,393.652 892,411.5C 889.552,415.615 886.719,419.448 883.5,423C 883.833,423.333 884.167,423.667 884.5,424C 880.631,427.534 877.131,431.367 874,435.5C 867.768,440.699 861.268,445.532 854.5,450C 823.371,464.9 790.704,474.566 756.5,479C 732.482,481.057 708.482,483.224 684.5,485.5C 664.557,485.111 644.723,485.111 625,485.5C 610.512,484.006 596.012,483.006 581.5,482.5C 577.149,483.216 572.816,482.882 568.5,481.5C 563.093,481.574 557.759,481.574 552.5,481.5C 531.054,479.782 509.887,477.448 489,474.5C 488.228,474.645 487.561,474.978 487,475.5C 480.317,474.248 473.651,472.915 467,471.5C 463.023,471.345 459.023,471.345 455,471.5C 451.194,469.745 447.361,469.078 443.5,469.5C 434.508,467.974 425.341,466.307 416,464.5C 415.228,464.645 414.561,464.978 414,465.5C 411,464.5 408,463.5 405,462.5C 404.439,463.022 403.772,463.355 403,463.5C 397.173,462.126 391.34,460.793 385.5,459.5C 384.833,459.833 384.167,460.167 383.5,460.5C 362.843,456.577 342.51,452.244 322.5,447.5C 319.867,448.301 318.033,449.967 317,452.5C 313.923,459.652 310.59,466.652 307,473.5C 305.959,475.585 304.459,477.252 302.5,478.5C 292.214,458.051 281.881,438.551 271.5,420C 271.833,419.667 272.167,419.333 272.5,419C 270.498,416.29 268.498,413.623 266.5,411C 266.854,409.374 266.854,407.541 266.5,405.5C 296.466,397.924 326.133,389.258 355.5,379.5C 356.521,380.002 356.688,380.668 356,381.5C 351.165,389.352 346.331,397.185 341.5,405C 378.055,418.643 415.055,428.477 452.5,434.5C 457.703,435.793 462.87,437.126 468,438.5C 468.414,438.043 468.914,437.709 469.5,437.5C 481.278,439.449 493.111,441.783 505,444.5C 508.8,444.566 512.633,444.566 516.5,444.5C 536.139,447.451 555.473,450.118 574.5,452.5C 575.293,452.069 576.127,451.735 577,451.5C 580.056,452.077 583.056,452.743 586,453.5C 586.725,452.941 587.558,452.608 588.5,452.5C 609.324,453.988 630.157,455.322 651,456.5C 662.152,455.305 673.319,455.305 684.5,456.5C 721.052,455.037 757.386,451.203 793.5,445C 814.293,440.27 834.293,433.27 853.5,424C 865.43,416.402 875.763,407.069 884.5,396C 884.167,395.667 883.833,395.333 883.5,395C 884.981,392.238 886.647,389.571 888.5,387C 888.167,386.667 887.833,386.333 887.5,386C 888.872,383.467 889.872,380.8 890.5,378C 890.167,377.667 889.833,377.333 889.5,377C 891.573,369.28 891.239,361.78 888.5,354.5 Z"/></g>
<g><path style="opacity:1" fill="#fb9454" d="M 968.5,368.5 C 969.833,369.167 969.833,369.167 968.5,368.5 Z"/></g>
<g><path style="opacity:1" fill="#fb9454" d="M 967.5,371.5 C 968.573,372.251 968.74,373.251 968,374.5C 967.517,373.552 967.351,372.552 967.5,371.5 Z"/></g>
</svg>
