<?xml version="1.0" encoding="UTF-8"?>
<!DOCTYPE svg PUBLIC "-//W3C//DTD SVG 1.1//EN" "http://www.w3.org/Graphics/SVG/1.1/DTD/svg11.dtd">
<svg xmlns="http://www.w3.org/2000/svg" version="1.1" width="2318px" height="887px" style="shape-rendering:geometricPrecision; text-rendering:geometricPrecision; image-rendering:optimizeQuality; fill-rule:evenodd; clip-rule:evenodd" xmlns:xlink="http://www.w3.org/1999/xlink">
<g><path style="opacity:0.998" fill="#1147ab" d="M 774.5,60.5 C 795.574,94.7596 816.908,128.926 838.5,163C 803.319,174.508 767.986,185.174 732.5,195C 736.525,184.593 740.358,174.093 744,163.5C 744.781,162.056 744.614,160.723 743.5,159.5C 706.314,141.494 667.314,128.994 626.5,122C 533.269,104.41 440.269,105.41 347.5,125C 310.248,133.3 275.581,147.633 243.5,168C 203.683,194.444 179.516,231.277 171,278.5C 170.024,286.138 169.357,293.805 169,301.5C 163.876,222.57 195.376,163.403 263.5,124C 296.277,106.185 330.944,93.5184 367.5,86C 430.888,73.2948 494.888,68.6282 559.5,72C 628.566,74.6998 696.566,84.5332 763.5,101.5C 766.961,87.7833 770.627,74.1166 774.5,60.5 Z"/></g>
<g><path style="opacity:1" fill="#fc9455" d="M 1303.5,156.5 C 1326.85,156.286 1350.18,156.786 1373.5,158C 1406.67,161.179 1426.5,179.012 1433,211.5C 1433.67,270.167 1433.67,328.833 1433,387.5C 1427.1,414.073 1410.93,430.906 1384.5,438C 1376.28,439.882 1367.95,440.882 1359.5,441C 1339.5,441.667 1319.5,441.667 1299.5,441C 1282.12,440.76 1266.12,436.094 1251.5,427C 1238.87,416.366 1231.37,402.866 1229,386.5C 1228.33,328.167 1228.33,269.833 1229,211.5C 1234.46,184.37 1250.63,167.203 1277.5,160C 1286.25,158.327 1294.91,157.16 1303.5,156.5 Z M 1301.5,217.5 C 1321.17,217.333 1340.84,217.5 1360.5,218C 1365.91,219.743 1369.74,223.243 1372,228.5C 1373.65,274.108 1373.98,319.774 1373,365.5C 1371.66,371.501 1368.16,375.668 1362.5,378C 1344.2,379.569 1325.87,379.902 1307.5,379C 1297.22,379.383 1291.05,374.549 1289,364.5C 1288.33,320.167 1288.33,275.833 1289,231.5C 1290.95,224.72 1295.12,220.053 1301.5,217.5 Z"/></g>
<g><path style="opacity:1" fill="#fc9455" d="M 1850.5,161.5 C 1853.65,160.959 1856.15,161.959 1858,164.5C 1876.25,191.328 1894.25,218.328 1912,245.5C 1914.72,248.321 1917.05,247.987 1919,244.5C 1937.29,217.419 1955.46,190.253 1973.5,163C 1996.07,162.173 2018.57,162.34 2041,163.5C 2041.96,236.518 2041.63,309.518 2040,382.5C 2031.06,416.279 2009.23,434.613 1974.5,437.5C 1974.82,383.144 1974.48,328.81 1973.5,274.5C 1970.74,274.744 1968.57,276.077 1967,278.5C 1949.67,299.167 1932.33,319.833 1915,340.5C 1897,319.833 1879,299.167 1861,278.5C 1859.56,276.845 1857.72,276.178 1855.5,276.5C 1855.67,310.835 1855.5,345.168 1855,379.5C 1847.61,413.285 1826.77,432.619 1792.5,437.5C 1791.23,437.43 1790.06,437.097 1789,436.5C 1788.33,364.833 1788.33,293.167 1789,221.5C 1795.94,187.389 1816.44,167.389 1850.5,161.5 Z"/></g>
<g><path style="opacity:1" fill="#fc9455" d="M 1554.5,163.5 C 1609.17,163.5 1663.83,163.5 1718.5,163.5C 1718.42,183.922 1710.08,200.089 1693.5,212C 1687.93,215.553 1681.93,218.22 1675.5,220C 1664.51,221.083 1653.51,221.916 1642.5,222.5C 1642.67,276.834 1642.5,331.168 1642,385.5C 1636.15,410.35 1620.98,426.517 1596.5,434C 1591.26,435.648 1585.92,436.315 1580.5,436C 1579.83,364.901 1579.17,293.735 1578.5,222.5C 1553.54,221.676 1528.54,221.176 1503.5,221C 1505.81,188.923 1522.81,169.756 1554.5,163.5 Z"/></g>
<g><path style="opacity:0.998" fill="#1148ab" d="M 356.5,166.5 C 438.381,166.888 519.048,177.054 598.5,197C 648.223,208.889 697.39,222.722 746,238.5C 746.945,238.095 747.612,237.428 748,236.5C 750.708,226.663 753.875,216.996 757.5,207.5C 773.945,234.882 790.278,262.382 806.5,290C 777.984,298.173 749.484,306.34 721,314.5C 723.568,306.137 726.568,297.803 730,289.5C 730.808,287.421 730.641,285.421 729.5,283.5C 679.72,258.183 627.72,238.683 573.5,225C 504.221,206.203 433.721,195.703 362,193.5C 325.988,193.147 290.821,198.313 256.5,209C 232.987,217.485 213.821,231.651 199,251.5C 192.094,263.645 187.761,276.645 186,290.5C 185.553,253.897 199.719,224.397 228.5,202C 256.454,183.792 287.12,173.125 320.5,170C 332.646,168.752 344.646,167.585 356.5,166.5 Z"/></g>
<g><path style="opacity:0.998" fill="#fb9454" d="M 967.5,374.5 C 958.664,412.512 935.997,438.679 899.5,453C 866.53,463.368 832.863,466.368 798.5,462C 752.095,456.852 706.762,446.852 662.5,432C 575.134,402.982 491.134,366.315 410.5,322C 408.888,321.28 407.388,321.446 406,322.5C 400.745,332.01 395.745,341.676 391,351.5C 379.828,321.317 368.662,291.15 357.5,261C 385.003,257.605 412.669,254.771 440.5,252.5C 442.167,252.833 443.833,253.167 445.5,253.5C 441,260.5 436.5,267.5 432,274.5C 430.813,276.044 430.48,277.711 431,279.5C 459.552,301.364 489.719,320.864 521.5,338C 588.075,373.637 657.742,401.637 730.5,422C 767.011,432.025 804.178,437.859 842,439.5C 863.575,439.593 884.742,436.76 905.5,431C 935.297,422.03 955.964,403.197 967.5,374.5 Z"/></g>
<g><path style="opacity:1" fill="#fb9454" d="M 968.5,368.5 C 969.833,369.167 969.833,369.167 968.5,368.5 Z"/></g>
<g><path style="opacity:1" fill="#fb9454" d="M 967.5,374.5 C 967.351,373.448 967.517,372.448 968,371.5C 968.74,372.749 968.573,373.749 967.5,374.5 Z"/></g>
<g><path style="opacity:0.998" fill="#fb9454" d="M 448.5,372.5 C 449.043,372.56 449.376,372.893 449.5,373.5C 444.901,382.971 441.567,392.638 439.5,402.5C 485.432,426.202 533.432,444.702 583.5,458C 648.24,476.679 714.24,488.012 781.5,492C 820.3,494.633 858.634,491.633 896.5,483C 922.895,476.727 945.395,463.894 964,444.5C 975.038,430.412 981.705,414.412 984,396.5C 983.682,440.327 964.515,472.827 926.5,494C 901.198,506.326 874.532,513.993 846.5,517C 793.978,521.522 741.644,519.856 689.5,512C 599.608,497.985 511.441,476.819 425,448.5C 423.674,448.755 422.674,449.422 422,450.5C 418.85,460.286 415.516,469.952 412,479.5C 395.364,451.889 379.531,423.889 364.5,395.5C 392.768,388.435 420.768,380.769 448.5,372.5 Z"/></g>
<g><path style="opacity:1" fill="#fb9355" d="M 68.5,618.5 C 794.5,618.333 1520.5,618.5 2246.5,619C 2280.82,622.654 2300.99,641.487 2307,675.5C 2307.67,708.833 2307.67,742.167 2307,775.5C 2301,809.503 2280.83,828.337 2246.5,832C 1520.5,832.667 794.5,832.667 68.5,832C 35.0656,828.566 14.899,810.399 8,777.5C 7.33333,742.833 7.33333,708.167 8,673.5C 15.0522,640.61 35.2189,622.276 68.5,618.5 Z"/></g>
<g><path style="opacity:1" fill="#1948a9" d="M 602.5,689.5 C 601.549,690.919 601.216,692.585 601.5,694.5C 612.884,693.856 623.884,694.523 634.5,696.5C 634.606,702.583 632.94,708.083 629.5,713C 627.608,713.973 625.608,714.64 623.5,715C 615.173,715.5 606.84,715.666 598.5,715.5C 597.073,725.486 595.74,735.486 594.5,745.5C 593.596,746.209 593.263,747.209 593.5,748.5C 604.833,748.5 616.167,748.5 627.5,748.5C 627.926,756.115 625.593,762.615 620.5,768C 612.559,769.099 604.559,769.599 596.5,769.5C 588.759,769.616 581.093,769.116 573.5,768C 571.026,765.959 570.026,763.292 570.5,760C 572.548,745.167 574.548,730.333 576.5,715.5C 570.021,714.509 563.354,714.176 556.5,714.5C 556.5,713.167 556.5,711.833 556.5,710.5C 555.407,702.168 558.74,696.668 566.5,694C 571.155,693.501 575.821,693.334 580.5,693.5C 580.658,685.727 581.658,678.06 583.5,670.5C 583.451,666.896 581.784,664.396 578.5,663C 585.167,662.333 591.833,662.333 598.5,663C 600.848,663.346 602.681,664.513 604,666.5C 604.21,674.2 603.71,681.867 602.5,689.5 Z"/></g>
<g><path style="opacity:1" fill="#1b49a9" d="M 1417.5,744.5 C 1416.57,745.568 1416.23,746.901 1416.5,748.5C 1427.5,748.5 1438.5,748.5 1449.5,748.5C 1449.5,749.833 1449.5,751.167 1449.5,752.5C 1449.36,758.434 1447.36,763.601 1443.5,768C 1428.55,769.6 1413.55,769.934 1398.5,769C 1396.92,768.293 1395.42,767.46 1394,766.5C 1394.47,749.504 1396.31,732.671 1399.5,716C 1392.14,715.831 1384.81,715.331 1377.5,714.5C 1378.25,710.165 1379.08,705.832 1380,701.5C 1381.4,696.772 1384.56,694.272 1389.5,694C 1393.82,693.501 1398.15,693.334 1402.5,693.5C 1403.83,683.167 1405.17,672.833 1406.5,662.5C 1413.26,662.037 1419.76,663.037 1426,665.5C 1427.01,667.534 1427.51,669.7 1427.5,672C 1426.23,679.136 1425.23,686.302 1424.5,693.5C 1435.5,693.5 1446.5,693.5 1457.5,693.5C 1457.49,700.463 1455.82,706.963 1452.5,713C 1450.61,713.973 1448.61,714.64 1446.5,715C 1437.84,715.5 1429.17,715.666 1420.5,715.5C 1419.63,725.174 1418.63,734.841 1417.5,744.5 Z"/></g>
<g><path style="opacity:1" fill="#5f6289" d="M 602.5,689.5 C 602.5,690.833 602.5,692.167 602.5,693.5C 613.5,693.5 624.5,693.5 635.5,693.5C 635.737,694.791 635.404,695.791 634.5,696.5C 623.884,694.523 612.884,693.856 601.5,694.5C 601.216,692.585 601.549,690.919 602.5,689.5 Z"/></g>
<g><path style="opacity:1" fill="#806e7c" d="M 670.5,694.5 C 693.327,693.502 716.327,693.169 739.5,693.5C 739.737,694.791 739.404,695.791 738.5,696.5C 716.191,694.51 693.525,693.844 670.5,694.5 Z"/></g>
<g><path style="opacity:1" fill="#666486" d="M 832.5,694.5 C 809.833,694.5 787.167,694.5 764.5,694.5C 764.5,698.5 764.5,702.5 764.5,706.5C 763.515,702.366 763.182,698.032 763.5,693.5C 786.673,693.169 809.673,693.502 832.5,694.5 Z"/></g>
<g><path style="opacity:1" fill="#806e7c" d="M 1288.5,694.5 C 1311.33,693.502 1334.33,693.169 1357.5,693.5C 1357.78,695.415 1357.45,697.081 1356.5,698.5C 1356.5,697.167 1356.5,695.833 1356.5,694.5C 1333.83,694.5 1311.17,694.5 1288.5,694.5 Z"/></g>
<g><path style="opacity:1" fill="#666486" d="M 1923.5,694.5 C 1900.83,694.5 1878.17,694.5 1855.5,694.5C 1855.5,698.5 1855.5,702.5 1855.5,706.5C 1854.52,702.366 1854.18,698.032 1854.5,693.5C 1877.67,693.169 1900.67,693.502 1923.5,694.5 Z"/></g>
<g><path style="opacity:1" fill="#806e7c" d="M 2172.5,694.5 C 2195.33,693.502 2218.33,693.169 2241.5,693.5C 2241.74,694.791 2241.4,695.791 2240.5,696.5C 2218.19,694.51 2195.52,693.844 2172.5,694.5 Z"/></g>
<g><path style="opacity:1" fill="#1c49a9" d="M 93.5,693.5 C 112.503,693.333 131.503,693.5 150.5,694C 159.663,694.158 163.163,698.658 161,707.5C 158.465,726.249 155.465,744.916 152,763.5C 150.749,766.381 148.583,768.214 145.5,769C 124.5,769.667 103.5,769.667 82.5,769C 78.0278,767.738 76.0278,764.738 76.5,760C 78.8144,741.8 81.3144,723.633 84,705.5C 84.5908,699.258 87.7575,695.258 93.5,693.5 Z"/></g>
<g><path style="opacity:1" fill="#1b49a9" d="M 197.5,693.5 C 217.169,693.333 236.836,693.5 256.5,694C 262.363,694.194 265.029,697.194 264.5,703C 261.959,719.452 259.793,735.952 258,752.5C 257.71,758.544 255.543,763.71 251.5,768C 250.167,768.333 248.833,768.667 247.5,769C 231.503,769.5 215.503,769.667 199.5,769.5C 199.254,778.727 197.754,787.727 195,796.5C 193.681,798.487 191.848,799.654 189.5,800C 184.511,800.499 179.511,800.666 174.5,800.5C 178.298,767.745 182.798,735.079 188,702.5C 189.462,697.548 192.629,694.548 197.5,693.5 Z"/></g>
<g><path style="opacity:1" fill="#1948a9" d="M 306.5,744.5 C 305.566,745.568 305.232,746.901 305.5,748.5C 319.5,748.5 333.5,748.5 347.5,748.5C 353.336,747.624 356.669,749.958 357.5,755.5C 357.5,759.833 357.5,764.167 357.5,768.5C 334.5,768.5 311.5,768.5 288.5,768.5C 285.852,768.262 284.018,766.928 283,764.5C 284.204,744.735 286.537,725.068 290,705.5C 290.538,700.912 292.704,697.412 296.5,695C 307.598,693.866 318.765,693.366 330,693.5C 340.167,693.667 350.333,693.833 360.5,694C 365.706,694.738 368.039,697.738 367.5,703C 366.075,714.978 363.908,726.811 361,738.5C 358.656,740.774 355.822,741.941 352.5,742C 337.5,742.333 322.5,742.667 307.5,743C 306.944,743.383 306.611,743.883 306.5,744.5 Z"/></g>
<g><path style="opacity:1" fill="#1e49a9" d="M 404.5,693.5 C 424.503,693.333 444.503,693.5 464.5,694C 467.494,694.406 469.661,695.906 471,698.5C 470.904,707.183 470.237,715.85 469,724.5C 467.465,737.994 465.132,751.327 462,764.5C 460.269,766.617 458.102,768.117 455.5,769C 450.511,769.499 445.511,769.666 440.5,769.5C 443.269,751.554 445.602,733.554 447.5,715.5C 436.828,715.333 426.161,715.5 415.5,716C 412.542,731.031 410.042,746.198 408,761.5C 406.73,765.77 403.896,768.27 399.5,769C 394.845,769.499 390.179,769.666 385.5,769.5C 388.246,747.114 391.412,724.78 395,702.5C 396.462,697.548 399.629,694.548 404.5,693.5 Z"/></g>
<g><path style="opacity:1" fill="#1948a9" d="M 670.5,694.5 C 693.525,693.844 716.191,694.51 738.5,696.5C 737.99,700.884 737.157,705.218 736,709.5C 735.167,711.667 733.667,713.167 731.5,714C 715.22,715.273 698.886,715.94 682.5,716C 681.299,716.903 680.465,718.069 680,719.5C 678.257,734.608 675.923,749.608 673,764.5C 671.269,766.617 669.102,768.117 666.5,769C 661.511,769.499 656.511,769.666 651.5,769.5C 654.246,747.114 657.412,724.78 661,702.5C 662.566,697.755 665.733,695.088 670.5,694.5 Z"/></g>
<g><path style="opacity:1" fill="#1a49a9" d="M 832.5,694.5 C 837.597,694.673 839.93,697.339 839.5,702.5C 837.526,716.817 835.693,731.15 834,745.5C 833.344,752.448 831.677,759.114 829,765.5C 827.421,767.041 825.587,768.208 823.5,769C 802.5,769.667 781.5,769.667 760.5,769C 758.671,768.727 757.171,767.893 756,766.5C 755.038,753.269 756.372,740.269 760,727.5C 761.668,723.835 764.501,721.668 768.5,721C 784.177,720.833 799.844,720.333 815.5,719.5C 816.246,718.264 816.579,716.93 816.5,715.5C 801.163,715.667 785.83,715.5 770.5,715C 766.257,713.801 764.257,710.968 764.5,706.5C 764.5,702.5 764.5,698.5 764.5,694.5C 787.167,694.5 809.833,694.5 832.5,694.5 Z"/></g>
<g><path style="opacity:1" fill="#1e49a9" d="M 876.5,693.5 C 896.503,693.333 916.503,693.5 936.5,694C 939.494,694.406 941.661,695.906 943,698.5C 942.904,707.183 942.237,715.85 941,724.5C 939.465,737.994 937.132,751.327 934,764.5C 932.269,766.617 930.102,768.117 927.5,769C 922.511,769.499 917.511,769.666 912.5,769.5C 915.269,751.554 917.602,733.554 919.5,715.5C 908.828,715.333 898.161,715.5 887.5,716C 884.542,731.031 882.042,746.198 880,761.5C 878.73,765.77 875.896,768.27 871.5,769C 866.845,769.499 862.179,769.666 857.5,769.5C 860.246,747.114 863.412,724.78 867,702.5C 868.462,697.548 871.629,694.548 876.5,693.5 Z"/></g>
<g><path style="opacity:1" fill="#1e49a9" d="M 989.5,717.5 C 988.566,718.568 988.232,719.901 988.5,721.5C 1003.5,721.5 1018.5,721.5 1033.5,721.5C 1039.3,721.467 1042.3,724.301 1042.5,730C 1041.44,741.297 1039.61,752.464 1037,763.5C 1035.75,766.381 1033.58,768.214 1030.5,769C 1009.17,769.667 987.833,769.667 966.5,769C 964.333,768.167 962.833,766.667 962,764.5C 961.522,759.132 961.855,753.799 963,748.5C 981.424,747.507 999.924,747.174 1018.5,747.5C 1018.5,745.833 1018.5,744.167 1018.5,742.5C 1001.43,742.957 984.43,742.457 967.5,741C 966.874,740.25 966.374,739.416 966,738.5C 965.68,727.402 966.68,716.402 969,705.5C 969.431,698.773 972.931,694.939 979.5,694C 1002.16,693.5 1024.83,693.333 1047.5,693.5C 1047.06,699.315 1045.9,704.981 1044,710.5C 1042.79,712.049 1041.29,713.215 1039.5,714C 1023.23,715.289 1006.9,715.956 990.5,716C 989.944,716.383 989.611,716.883 989.5,717.5 Z"/></g>
<g><path style="opacity:1" fill="#1b49a9" d="M 1081.5,693.5 C 1101.17,693.333 1120.84,693.5 1140.5,694C 1146.66,694.321 1149.33,697.488 1148.5,703.5C 1146.14,722.183 1143.64,740.85 1141,759.5C 1140.33,764.708 1137.5,767.875 1132.5,769C 1116.5,769.5 1100.5,769.667 1084.5,769.5C 1083.64,778.708 1081.8,787.708 1079,796.5C 1077.79,798.049 1076.29,799.215 1074.5,800C 1069.18,800.499 1063.84,800.666 1058.5,800.5C 1062.67,767.797 1067.17,735.13 1072,702.5C 1073.78,697.888 1076.94,694.888 1081.5,693.5 Z"/></g>
<g><path style="opacity:1" fill="#1b49a9" d="M 1183.5,693.5 C 1203.84,693.333 1224.17,693.5 1244.5,694C 1249.86,694.88 1252.2,698.047 1251.5,703.5C 1248.91,719.778 1246.75,736.111 1245,752.5C 1244.34,757.825 1242.5,762.658 1239.5,767C 1236.62,768.127 1233.62,768.794 1230.5,769C 1211.17,769.667 1191.83,769.667 1172.5,769C 1171,768.417 1169.67,767.584 1168.5,766.5C 1167.38,760.552 1167.21,754.552 1168,748.5C 1170,734.502 1172,720.502 1174,706.5C 1174.78,700.205 1177.95,695.872 1183.5,693.5 Z"/></g>
<g><path style="opacity:1" fill="#1948a9" d="M 1288.5,694.5 C 1311.17,694.5 1333.83,694.5 1356.5,694.5C 1356.5,695.833 1356.5,697.167 1356.5,698.5C 1356.12,703.037 1354.95,707.371 1353,711.5C 1351.2,713.317 1349.03,714.484 1346.5,715C 1331.17,715.333 1315.83,715.667 1300.5,716C 1296.9,729.847 1294.4,744.013 1293,758.5C 1292.45,765.051 1288.95,768.551 1282.5,769C 1278.18,769.499 1273.85,769.666 1269.5,769.5C 1272.71,747.515 1275.88,725.515 1279,703.5C 1280.1,698.235 1283.26,695.235 1288.5,694.5 Z"/></g>
<g><path style="opacity:1" fill="#1d49a9" d="M 1553.5,693.5 C 1573.84,693.333 1594.17,693.5 1614.5,694C 1616.85,694.346 1618.68,695.513 1620,697.5C 1619.02,719.684 1616.36,741.684 1612,763.5C 1610.75,766.381 1608.58,768.214 1605.5,769C 1600.51,769.499 1595.51,769.666 1590.5,769.5C 1592.46,751.451 1594.79,733.451 1597.5,715.5C 1595.53,715.261 1593.7,715.594 1592,716.5C 1589.55,732.962 1586.55,749.295 1583,765.5C 1581.42,767.041 1579.59,768.208 1577.5,769C 1572.51,769.499 1567.51,769.666 1562.5,769.5C 1564.65,751.475 1566.98,733.475 1569.5,715.5C 1567.28,715.178 1565.44,715.845 1564,717.5C 1562.09,731.177 1560.09,744.843 1558,758.5C 1557.67,764.715 1554.5,768.215 1548.5,769C 1542.17,769.667 1535.83,769.667 1529.5,769C 1532.04,766.795 1534.21,764.295 1536,761.5C 1538.81,741.129 1541.81,720.796 1545,700.5C 1546.87,696.784 1549.7,694.45 1553.5,693.5 Z"/></g>
<g><path style="opacity:1" fill="#1d49a9" d="M 1648.5,693.5 C 1671.17,693.333 1693.84,693.5 1716.5,694C 1721.87,694.699 1724.21,697.699 1723.5,703C 1721.19,721.862 1718.69,740.695 1716,759.5C 1715.3,763.066 1713.47,765.9 1710.5,768C 1688.56,769.634 1666.56,769.967 1644.5,769C 1640.04,766.795 1638.37,763.128 1639.5,758C 1640.32,746.971 1642.15,736.138 1645,725.5C 1646.95,723.106 1649.45,721.606 1652.5,721C 1668.17,720.667 1683.83,720.333 1699.5,720C 1700.38,718.644 1700.71,717.144 1700.5,715.5C 1685.16,715.667 1669.83,715.5 1654.5,715C 1651.67,714.167 1649.83,712.333 1649,709.5C 1648.5,704.177 1648.33,698.844 1648.5,693.5 Z"/></g>
<g><path style="opacity:1" fill="#1d49a9" d="M 1760.5,693.5 C 1780.5,693.333 1800.5,693.5 1820.5,694C 1823.28,694.066 1825.44,695.232 1827,697.5C 1827.67,701.833 1827.67,706.167 1827,710.5C 1824.66,728.231 1821.99,745.898 1819,763.5C 1817.75,766.381 1815.58,768.214 1812.5,769C 1807.51,769.499 1802.51,769.666 1797.5,769.5C 1799.54,751.461 1801.87,733.461 1804.5,715.5C 1793.83,715.333 1783.16,715.5 1772.5,716C 1772,716.5 1771.5,717 1771,717.5C 1769.17,733.328 1766.5,748.995 1763,764.5C 1761.24,767.268 1758.74,768.768 1755.5,769C 1751.18,769.499 1746.85,769.666 1742.5,769.5C 1745,747.803 1747.84,726.136 1751,704.5C 1751.94,698.736 1755.11,695.069 1760.5,693.5 Z"/></g>
<g><path style="opacity:1" fill="#1a49a9" d="M 1923.5,694.5 C 1928.6,694.673 1930.93,697.339 1930.5,702.5C 1928.53,716.817 1926.69,731.15 1925,745.5C 1924.34,752.448 1922.68,759.114 1920,765.5C 1918.42,767.041 1916.59,768.208 1914.5,769C 1893.5,769.667 1872.5,769.667 1851.5,769C 1849.67,768.727 1848.17,767.893 1847,766.5C 1846.04,753.269 1847.37,740.269 1851,727.5C 1852.67,723.835 1855.5,721.668 1859.5,721C 1875.18,720.833 1890.84,720.333 1906.5,719.5C 1907.25,718.264 1907.58,716.93 1907.5,715.5C 1892.16,715.667 1876.83,715.5 1861.5,715C 1857.26,713.801 1855.26,710.968 1855.5,706.5C 1855.5,702.5 1855.5,698.5 1855.5,694.5C 1878.17,694.5 1900.83,694.5 1923.5,694.5 Z"/></g>
<g><path style="opacity:1" fill="#1948a9" d="M 2007.5,800.5 C 1985.81,801.156 1964.47,800.489 1943.5,798.5C 1943.4,791.635 1945.73,785.802 1950.5,781C 1966.41,779.696 1982.41,779.03 1998.5,779C 1999.67,778.5 2000.5,777.667 2001,776.5C 2001.5,774.19 2001.66,771.857 2001.5,769.5C 1985.5,769.667 1969.5,769.5 1953.5,769C 1951.33,768.167 1949.83,766.667 1949,764.5C 1950.07,743.325 1952.74,722.325 1957,701.5C 1958.4,696.772 1961.56,694.272 1966.5,694C 1985.17,693.333 2003.83,693.333 2022.5,694C 2026.39,694.027 2029.55,695.527 2032,698.5C 2032.67,702.833 2032.67,707.167 2032,711.5C 2028.33,737.826 2024.67,764.159 2021,790.5C 2019.8,798.197 2015.3,801.53 2007.5,800.5 Z"/></g>
<g><path style="opacity:1" fill="#1948a9" d="M 2074.5,744.5 C 2073.57,745.568 2073.23,746.901 2073.5,748.5C 2087.5,748.5 2101.5,748.5 2115.5,748.5C 2121.34,747.624 2124.67,749.958 2125.5,755.5C 2125.5,759.833 2125.5,764.167 2125.5,768.5C 2102.5,768.5 2079.5,768.5 2056.5,768.5C 2053.85,768.262 2052.02,766.928 2051,764.5C 2052.2,744.735 2054.54,725.068 2058,705.5C 2058.54,700.912 2060.7,697.412 2064.5,695C 2075.6,693.866 2086.77,693.366 2098,693.5C 2108.17,693.667 2118.33,693.833 2128.5,694C 2133.71,694.738 2136.04,697.738 2135.5,703C 2134.07,714.978 2131.91,726.811 2129,738.5C 2126.66,740.774 2123.82,741.941 2120.5,742C 2105.5,742.333 2090.5,742.667 2075.5,743C 2074.94,743.383 2074.61,743.883 2074.5,744.5 Z"/></g>
<g><path style="opacity:1" fill="#1948a9" d="M 2172.5,694.5 C 2195.52,693.844 2218.19,694.51 2240.5,696.5C 2239.99,700.884 2239.16,705.218 2238,709.5C 2237.17,711.667 2235.67,713.167 2233.5,714C 2217.22,715.273 2200.89,715.94 2184.5,716C 2183.3,716.903 2182.47,718.069 2182,719.5C 2180.26,734.608 2177.92,749.608 2175,764.5C 2173.27,766.617 2171.1,768.117 2168.5,769C 2163.51,769.499 2158.51,769.666 2153.5,769.5C 2156.25,747.114 2159.41,724.78 2163,702.5C 2164.57,697.755 2167.73,695.088 2172.5,694.5 Z"/></g>
<g><path style="opacity:1" fill="#4c5c90" d="M 556.5,710.5 C 556.5,711.833 556.5,713.167 556.5,714.5C 563.354,714.176 570.021,714.509 576.5,715.5C 569.5,715.5 562.5,715.5 555.5,715.5C 555.216,713.585 555.549,711.919 556.5,710.5 Z"/></g>
<g><path style="opacity:1" fill="#525e8e" d="M 1197.5,715.5 C 1207.65,714.506 1217.99,714.172 1228.5,714.5C 1228.78,716.415 1228.45,718.081 1227.5,719.5C 1227.5,718.167 1227.5,716.833 1227.5,715.5C 1217.5,715.5 1207.5,715.5 1197.5,715.5 Z"/></g>
<g><path style="opacity:1" fill="#fa9355" d="M 132.5,747.5 C 121.448,748.143 110.781,747.476 100.5,745.5C 101.337,736.137 102.504,726.804 104,717.5C 104.5,717 105,716.5 105.5,716C 116.161,715.5 126.828,715.333 137.5,715.5C 136.748,726.44 135.082,737.107 132.5,747.5 Z"/></g>
<g><path style="opacity:1" fill="#f89256" d="M 208.5,715.5 C 219.167,715.5 229.833,715.5 240.5,715.5C 239.709,726.539 238.043,737.373 235.5,748C 224.839,748.5 214.172,748.667 203.5,748.5C 204.334,737.329 206,726.329 208.5,715.5 Z"/></g>
<g><path style="opacity:1" fill="#fb9355" d="M 341.5,720.5 C 331.167,720.5 320.833,720.5 310.5,720.5C 310.5,719.5 310.5,718.5 310.5,717.5C 321.116,715.523 332.116,714.856 343.5,715.5C 343.88,717.698 343.213,719.365 341.5,720.5 Z"/></g>
<g><path style="opacity:1" fill="#fa9355" d="M 1119.5,747.5 C 1109.17,747.5 1098.83,747.5 1088.5,747.5C 1088.5,746.5 1088.5,745.5 1088.5,744.5C 1088.74,734.64 1090.41,725.14 1093.5,716C 1104.16,715.5 1114.83,715.333 1125.5,715.5C 1123.89,725.47 1122.39,735.47 1121,745.5C 1120.72,746.416 1120.22,747.082 1119.5,747.5 Z"/></g>
<g><path style="opacity:1" fill="#fa9355" d="M 1197.5,715.5 C 1207.5,715.5 1217.5,715.5 1227.5,715.5C 1227.5,716.833 1227.5,718.167 1227.5,719.5C 1226.07,728.82 1224.74,738.154 1223.5,747.5C 1212.5,747.5 1201.5,747.5 1190.5,747.5C 1191.43,737.814 1192.6,728.147 1194,718.5C 1194.42,716.574 1195.59,715.574 1197.5,715.5 Z"/></g>
<g><path style="opacity:1" fill="#fa9355" d="M 2003.5,747.5 C 1992.78,748.142 1982.45,747.475 1972.5,745.5C 1973.1,736.102 1974.26,726.769 1976,717.5C 1976.5,717 1977,716.5 1977.5,716C 1988.16,715.5 1998.83,715.333 2009.5,715.5C 2008.66,724.202 2007.49,732.869 2006,741.5C 2005.96,743.974 2005.13,745.974 2003.5,747.5 Z"/></g>
<g><path style="opacity:1" fill="#fb9355" d="M 2109.5,720.5 C 2099.17,720.5 2088.83,720.5 2078.5,720.5C 2078.5,719.5 2078.5,718.5 2078.5,717.5C 2089.12,715.523 2100.12,714.856 2111.5,715.5C 2111.88,717.698 2111.21,719.365 2109.5,720.5 Z"/></g>
<g><path style="opacity:1" fill="#5e6289" d="M 310.5,717.5 C 310.5,718.5 310.5,719.5 310.5,720.5C 320.833,720.5 331.167,720.5 341.5,720.5C 331.013,721.494 320.346,721.828 309.5,721.5C 309.232,719.901 309.566,718.568 310.5,717.5 Z"/></g>
<g><path style="opacity:1" fill="#816e7c" d="M 989.5,717.5 C 989.5,718.5 989.5,719.5 989.5,720.5C 1004.34,720.171 1019.01,720.504 1033.5,721.5C 1018.5,721.5 1003.5,721.5 988.5,721.5C 988.232,719.901 988.566,718.568 989.5,717.5 Z"/></g>
<g><path style="opacity:1" fill="#5e6289" d="M 2078.5,717.5 C 2078.5,718.5 2078.5,719.5 2078.5,720.5C 2088.83,720.5 2099.17,720.5 2109.5,720.5C 2099.01,721.494 2088.35,721.828 2077.5,721.5C 2077.23,719.901 2077.57,718.568 2078.5,717.5 Z"/></g>
<g><path style="opacity:1" fill="#f99355" d="M 779.5,742.5 C 790.5,742.5 801.5,742.5 812.5,742.5C 812.714,744.144 812.38,745.644 811.5,747C 800.505,747.5 789.505,747.667 778.5,747.5C 778.366,745.708 778.699,744.042 779.5,742.5 Z"/></g>
<g><path style="opacity:1" fill="#fa9355" d="M 1663.5,742.5 C 1674.5,742.5 1685.5,742.5 1696.5,742.5C 1696.71,744.144 1696.38,745.644 1695.5,747C 1684.51,747.5 1673.51,747.667 1662.5,747.5C 1662.37,745.708 1662.7,744.042 1663.5,742.5 Z"/></g>
<g><path style="opacity:1" fill="#f99355" d="M 1870.5,742.5 C 1881.5,742.5 1892.5,742.5 1903.5,742.5C 1903.71,744.144 1903.38,745.644 1902.5,747C 1891.51,747.5 1880.51,747.667 1869.5,747.5C 1869.37,745.708 1869.7,744.042 1870.5,742.5 Z"/></g>
<g><path style="opacity:1" fill="#7d6d7d" d="M 100.5,745.5 C 110.781,747.476 121.448,748.143 132.5,747.5C 121.679,748.495 110.679,748.828 99.5,748.5C 99.2627,747.209 99.596,746.209 100.5,745.5 Z"/></g>
<g><path style="opacity:1" fill="#7f6d7d" d="M 306.5,744.5 C 306.5,745.5 306.5,746.5 306.5,747.5C 320.344,747.171 334.01,747.504 347.5,748.5C 333.5,748.5 319.5,748.5 305.5,748.5C 305.232,746.901 305.566,745.568 306.5,744.5 Z"/></g>
<g><path style="opacity:1" fill="#57608b" d="M 594.5,745.5 C 605.295,747.159 616.295,748.159 627.5,748.5C 616.167,748.5 604.833,748.5 593.5,748.5C 593.263,747.209 593.596,746.209 594.5,745.5 Z"/></g>
<g><path style="opacity:1" fill="#a37970" d="M 1088.5,744.5 C 1088.5,745.5 1088.5,746.5 1088.5,747.5C 1098.83,747.5 1109.17,747.5 1119.5,747.5C 1109.01,748.494 1098.35,748.828 1087.5,748.5C 1087.23,746.901 1087.57,745.568 1088.5,744.5 Z"/></g>
<g><path style="opacity:1" fill="#a6796f" d="M 1417.5,744.5 C 1417.5,745.5 1417.5,746.5 1417.5,747.5C 1428.5,747.5 1439.5,747.5 1450.5,747.5C 1450.78,749.415 1450.45,751.081 1449.5,752.5C 1449.5,751.167 1449.5,749.833 1449.5,748.5C 1438.5,748.5 1427.5,748.5 1416.5,748.5C 1416.23,746.901 1416.57,745.568 1417.5,744.5 Z"/></g>
<g><path style="opacity:1" fill="#a07871" d="M 1972.5,745.5 C 1982.45,747.475 1992.78,748.142 2003.5,747.5C 1993.01,748.494 1982.35,748.828 1971.5,748.5C 1971.26,747.209 1971.6,746.209 1972.5,745.5 Z"/></g>
<g><path style="opacity:1" fill="#7f6d7d" d="M 2074.5,744.5 C 2074.5,745.5 2074.5,746.5 2074.5,747.5C 2088.34,747.171 2102.01,747.504 2115.5,748.5C 2101.5,748.5 2087.5,748.5 2073.5,748.5C 2073.23,746.901 2073.57,745.568 2074.5,744.5 Z"/></g>
<g><path style="opacity:1" fill="#3f5698" d="M 357.5,755.5 C 358.486,759.97 358.819,764.637 358.5,769.5C 334.994,769.831 311.661,769.498 288.5,768.5C 311.5,768.5 334.5,768.5 357.5,768.5C 357.5,764.167 357.5,759.833 357.5,755.5 Z"/></g>
<g><path style="opacity:1" fill="#3f5698" d="M 2125.5,755.5 C 2126.49,759.97 2126.82,764.637 2126.5,769.5C 2102.99,769.831 2079.66,769.498 2056.5,768.5C 2079.5,768.5 2102.5,768.5 2125.5,768.5C 2125.5,764.167 2125.5,759.833 2125.5,755.5 Z"/></g>
<g><path style="opacity:1" fill="#917275" d="M 1943.5,798.5 C 1964.47,800.489 1985.81,801.156 2007.5,800.5C 1986.01,801.497 1964.34,801.831 1942.5,801.5C 1942.26,800.209 1942.6,799.209 1943.5,798.5 Z"/></g>
</svg>
